<svg xmlns="http://www.w3.org/2000/svg" viewBox="0 0 400 400" width="400" height="400" preserveAspectRatio="xMidYMid slice" style="width: 100%; height: 100%; transform: translate3d(0px, 0px, 0px);"><defs><clipPath id="__lottie_element_489"><rect width="400" height="400" x="0" y="0"></rect></clipPath></defs><g clip-path="url(#__lottie_element_489)"><g transform="matrix(-0.9192692637443542,-0.3936292827129364,0.3936292827129364,-0.9192692637443542,402.8094177246094,342.46685791015625)" opacity="1" style="display: block;"><g opacity="1" transform="matrix(1,0,0,1,198.16799926757812,99.55400085449219)"><path fill="rgb(162,116,57)" fill-opacity="1" d=" M63.018001556396484,-36.630001068115234 C45.534000396728516,-32.97600173950195 32.62699890136719,-44.88199996948242 34.367000579833984,-58.874000549316406 C31.809999465942383,-58.154998779296875 29.124000549316406,-57.74300003051758 26.336999893188477,-57.74300003051758 C9.996000289916992,-57.74300003051758 -0.2329999953508377,-70.7239990234375 -0.27799999713897705,-87.05500030517578 C-16.948999404907227,-86.39600372314453 -33.487998962402344,-80.62799835205078 -47.395999908447266,-69.4260025024414 C-82.27100372314453,-41.33700180053711 -87.39399719238281,10.177000045776367 -58.83700180053711,45.63100051879883 C-30.2810001373291,81.08499908447266 21.138999938964844,87.05400085449219 56.013999938964844,58.96500015258789 C77.21099853515625,41.89099884033203 87.3949966430664,16.163999557495117 85.72699737548828,-9.350000381469727 C70.49099731445312,-8.392999649047852 59.176998138427734,-20.02199935913086 63.018001556396484,-36.630001068115234z"></path></g><g opacity="1" transform="matrix(1,0,0,1,199.89500427246094,90.9729995727539)"><path fill="rgb(204,162,93)" fill-opacity="1" d=" M61.290000915527344,-28.048999786376953 C46.18000030517578,-24.395000457763672 31.025999069213867,-33.91400146484375 32.638999938964844,-50.29199981689453 C30.082000732421875,-49.573001861572266 27.39699935913086,-49.1619987487793 24.610000610351562,-49.1619987487793 C8.269000053405762,-49.1619987487793 -1.9609999656677246,-62.141998291015625 -2.00600004196167,-78.4729995727539 C-18.677000045776367,-77.81400299072266 -35.215999603271484,-72.0459976196289 -49.124000549316406,-60.84400177001953 C-83.9990005493164,-32.755001068115234 -77.04000091552734,9.026000022888184 -48.483001708984375,44.47999954223633 C-32.935001373291016,63.784000396728516 18.95800018310547,78.4729995727539 45.7239990234375,56.91400146484375 C66.06600189208984,40.529998779296875 82.25399780273438,20.70400047302246 83.9990005493164,-0.7680000066757202 C71.76399993896484,-1.065999984741211 54.50699996948242,-9.3149995803833 61.290000915527344,-28.048999786376953z"></path></g><g opacity="1" transform="matrix(1,0,0,1,196.47900390625,99.55400085449219)"><path stroke-linecap="round" stroke-linejoin="round" fill-opacity="0" stroke="rgb(0,0,0)" stroke-opacity="1" stroke-width="5" d=" M64.70600128173828,-36.630001068115234 C52.547000885009766,-32.97600173950195 32.678001403808594,-39.31100082397461 36.05500030517578,-58.874000549316406 C33.49800109863281,-58.154998779296875 30.812999725341797,-57.74300003051758 28.025999069213867,-57.74300003051758 C11.6850004196167,-57.74300003051758 1.4550000429153442,-70.7239990234375 1.409999966621399,-87.05500030517578 C-15.26099967956543,-86.39600372314453 -31.799999237060547,-80.62799835205078 -45.70800018310547,-69.4260025024414 C-77.20600128173828,-44.05699920654297 -89.08300018310547,5.984000205993652 -57.14899826049805,45.63100051879883 C-28.593000411987305,81.08499908447266 22.827999114990234,87.05400085449219 57.702999114990234,58.96500015258789 C78.9000015258789,41.89099884033203 89.08300018310547,16.163999557495117 87.41500091552734,-9.350000381469727 C68.927001953125,-9.64799976348877 59.42399978637695,-21.700000762939453 64.70600128173828,-36.630001068115234z"></path></g><g opacity="1" transform="matrix(1,0,0,1,197.4080047607422,89.23600006103516)"><path stroke-linecap="round" stroke-linejoin="round" fill-opacity="0" stroke="rgb(162,116,57)" stroke-opacity="1" stroke-width="4" d=" M-11.38599967956543,5.877999782562256 C-11.366000175476074,3.309000015258789 -10.475000381469727,0.7319999933242798 -8.673999786376953,-1.3730000257492065 C-4.618000030517578,-6.111000061035156 2.509999990463257,-6.664999961853027 7.249000072479248,-2.609999895095825 C10.04699993133545,-0.2150000035762787 11.38599967956543,3.252000093460083 11.178000450134277,6.664999961853027"></path></g><g opacity="1" transform="matrix(1,0,0,1,197.8699951171875,96.15399932861328)"><path fill="rgb(115,85,58)" fill-opacity="1" d=" M7.5289998054504395,9.345999717712402 C2.367000102996826,13.503999710083008 -5.189000129699707,12.690999984741211 -9.345999717712402,7.5289998054504395 C-13.503999710083008,2.367000102996826 -12.6899995803833,-5.189000129699707 -7.5279998779296875,-9.345999717712402 C-2.365999937057495,-13.503999710083008 5.189000129699707,-12.690999984741211 9.347000122070312,-7.5289998054504395 C13.505000114440918,-2.367000102996826 12.690999984741211,5.188000202178955 7.5289998054504395,9.345999717712402z"></path><path stroke-linecap="round" stroke-linejoin="round" fill-opacity="0" stroke="rgb(0,0,0)" stroke-opacity="1" stroke-width="5" d=" M7.5289998054504395,9.345999717712402 C2.367000102996826,13.503999710083008 -5.189000129699707,12.690999984741211 -9.345999717712402,7.5289998054504395 C-13.503999710083008,2.367000102996826 -12.6899995803833,-5.189000129699707 -7.5279998779296875,-9.345999717712402 C-2.365999937057495,-13.503999710083008 5.189000129699707,-12.690999984741211 9.347000122070312,-7.5289998054504395 C13.505000114440918,-2.367000102996826 12.690999984741211,5.188000202178955 7.5289998054504395,9.345999717712402z"></path></g><g opacity="1" transform="matrix(1,0,0,1,196.66799926757812,61.39799880981445)"><path fill="rgb(0,0,0)" fill-opacity="1" d=" M1.496999979019165,1.8580000400543213 C0.47099998593330383,2.684999942779541 -1.031000018119812,2.5230000019073486 -1.8580000400543213,1.496999979019165 C-2.684999942779541,0.4699999988079071 -2.5230000019073486,-1.031999945640564 -1.496000051498413,-1.8589999675750732 C-0.4699999988079071,-2.684999942779541 1.031999945640564,-2.5230000019073486 1.8580000400543213,-1.496999979019165 C2.684999942779541,-0.47099998593330383 2.5230000019073486,1.031000018119812 1.496999979019165,1.8580000400543213z"></path></g><g opacity="1" transform="matrix(1,0,0,1,185.91200256347656,69.5770034790039)"><path fill="rgb(0,0,0)" fill-opacity="1" d=" M1.496999979019165,1.8580000400543213 C0.47099998593330383,2.684999942779541 -1.031000018119812,2.5230000019073486 -1.8580000400543213,1.496999979019165 C-2.684999942779541,0.4699999988079071 -2.5230000019073486,-1.031999945640564 -1.496000051498413,-1.8589999675750732 C-0.4699999988079071,-2.684999942779541 1.031999945640564,-2.5239999294281006 1.8580000400543213,-1.496999979019165 C2.684999942779541,-0.47099998593330383 2.5230000019073486,1.031000018119812 1.496999979019165,1.8580000400543213z"></path></g><g opacity="1" transform="matrix(1,0,0,1,169.22900390625,72.76899719238281)"><path fill="rgb(0,0,0)" fill-opacity="1" d=" M1.4980000257492065,1.8580000400543213 C0.47099998593330383,2.684999942779541 -1.031000018119812,2.5230000019073486 -1.8569999933242798,1.496000051498413 C-2.684999942779541,0.4699999988079071 -2.5230000019073486,-1.031999945640564 -1.496000051498413,-1.8589999675750732 C-0.4699999988079071,-2.686000108718872 1.031999945640564,-2.5239999294281006 1.8589999675750732,-1.496999979019165 C2.684999942779541,-0.47099998593330383 2.5239999294281006,1.031000018119812 1.4980000257492065,1.8580000400543213z"></path></g><g opacity="1" transform="matrix(1,0,0,1,178.4720001220703,84.84600067138672)"><path fill="rgb(0,0,0)" fill-opacity="1" d=" M1.4980000257492065,1.8580000400543213 C0.47099998593330383,2.684999942779541 -1.031000018119812,2.5230000019073486 -1.8569999933242798,1.496999979019165 C-2.684999942779541,0.4699999988079071 -2.5230000019073486,-1.031999945640564 -1.496000051498413,-1.8589999675750732 C-0.4699999988079071,-2.684999942779541 1.031999945640564,-2.5230000019073486 1.8589999675750732,-1.496999979019165 C2.684999942779541,-0.47099998593330383 2.5239999294281006,1.031000018119812 1.4980000257492065,1.8580000400543213z"></path></g><g opacity="1" transform="matrix(1,0,0,1,154.1439971923828,109.9260025024414)"><path fill="rgb(0,0,0)" fill-opacity="1" d=" M1.496999979019165,1.8580000400543213 C0.47099998593330383,2.684999942779541 -1.031000018119812,2.5230000019073486 -1.8569999933242798,1.496000051498413 C-2.684999942779541,0.4699999988079071 -2.5230000019073486,-1.031999945640564 -1.496000051498413,-1.8589999675750732 C-0.4699999988079071,-2.684999942779541 1.031999945640564,-2.5239999294281006 1.8589999675750732,-1.496999979019165 C2.684999942779541,-0.47099998593330383 2.5230000019073486,1.031000018119812 1.496999979019165,1.8580000400543213z"></path></g><g opacity="1" transform="matrix(1,0,0,1,138.09800720214844,111.63700103759766)"><path fill="rgb(0,0,0)" fill-opacity="1" d=" M1.496999979019165,1.8580000400543213 C0.47099998593330383,2.684999942779541 -1.031000018119812,2.5230000019073486 -1.8580000400543213,1.496999979019165 C-2.684999942779541,0.4699999988079071 -2.5230000019073486,-1.031999945640564 -1.496999979019165,-1.8589999675750732 C-0.4699999988079071,-2.684999942779541 1.031999945640564,-2.5230000019073486 1.8589999675750732,-1.496999979019165 C2.684999942779541,-0.47099998593330383 2.5230000019073486,1.031000018119812 1.496999979019165,1.8580000400543213z"></path></g><g opacity="1" transform="matrix(1,0,0,1,178.3300018310547,110.70899963378906)"><path fill="rgb(0,0,0)" fill-opacity="1" d=" M1.496999979019165,1.8580000400543213 C0.47099998593330383,2.684999942779541 -1.031000018119812,2.5230000019073486 -1.8569999933242798,1.496000051498413 C-2.684999942779541,0.4699999988079071 -2.5230000019073486,-1.031999945640564 -1.496000051498413,-1.8589999675750732 C-0.4699999988079071,-2.684999942779541 1.031999945640564,-2.5239999294281006 1.8589999675750732,-1.496999979019165 C2.684999942779541,-0.47099998593330383 2.5230000019073486,1.031000018119812 1.496999979019165,1.8580000400543213z"></path></g><g opacity="1" transform="matrix(1,0,0,1,190.9149932861328,136.5500030517578)"><path fill="rgb(0,0,0)" fill-opacity="1" d=" M1.4980000257492065,1.8580000400543213 C0.47200000286102295,2.684999942779541 -1.0299999713897705,2.5230000019073486 -1.8569999933242798,1.496999979019165 C-2.684999942779541,0.4699999988079071 -2.5230000019073486,-1.031999945640564 -1.496000051498413,-1.8580000400543213 C-0.4699999988079071,-2.684999942779541 1.0329999923706055,-2.5230000019073486 1.8589999675750732,-1.496999979019165 C2.686000108718872,-0.4699999988079071 2.5239999294281006,1.031999945640564 1.4980000257492065,1.8580000400543213z"></path></g><g opacity="1" transform="matrix(1,0,0,1,174.86700439453125,149.4759979248047)"><path fill="rgb(0,0,0)" fill-opacity="1" d=" M1.496999979019165,1.8589999675750732 C0.47099998593330383,2.684999942779541 -1.031000018119812,2.5230000019073486 -1.8569999933242798,1.496999979019165 C-2.684999942779541,0.4699999988079071 -2.5230000019073486,-1.031999945640564 -1.496000051498413,-1.8589999675750732 C-0.4699999988079071,-2.684999942779541 1.031999945640564,-2.5230000019073486 1.8589999675750732,-1.496000051498413 C2.684999942779541,-0.4699999988079071 2.5230000019073486,1.031999945640564 1.496999979019165,1.8589999675750732z"></path></g><g opacity="1" transform="matrix(1,0,0,1,193.677001953125,165.2209930419922)"><path fill="rgb(0,0,0)" fill-opacity="1" d=" M1.496999979019165,1.8589999675750732 C0.47099998593330383,2.684999942779541 -1.031000018119812,2.5239999294281006 -1.8580000400543213,1.4980000257492065 C-2.684999942779541,0.47099998593330383 -2.5239999294281006,-1.031999945640564 -1.496000051498413,-1.8580000400543213 C-0.4699999988079071,-2.684999942779541 1.031999945640564,-2.5230000019073486 1.8580000400543213,-1.496000051498413 C2.684999942779541,-0.4699999988079071 2.5230000019073486,1.031999945640564 1.496999979019165,1.8589999675750732z"></path></g><g opacity="1" transform="matrix(1,0,0,1,201.19500732421875,124.47899627685547)"><path fill="rgb(0,0,0)" fill-opacity="1" d=" M1.4980000257492065,1.8580000400543213 C0.47200000286102295,2.684999942779541 -1.0299999713897705,2.5230000019073486 -1.8569999933242798,1.496999979019165 C-2.684999942779541,0.4699999988079071 -2.5230000019073486,-1.031999945640564 -1.496000051498413,-1.8589999675750732 C-0.4699999988079071,-2.684999942779541 1.0329999923706055,-2.5230000019073486 1.8589999675750732,-1.496999979019165 C2.686000108718872,-0.47099998593330383 2.5239999294281006,1.031000018119812 1.4980000257492065,1.8580000400543213z"></path></g><g opacity="1" transform="matrix(1,0,0,1,214.44900512695312,105.97899627685547)"><path fill="rgb(0,0,0)" fill-opacity="1" d=" M1.496999979019165,1.8580000400543213 C0.47099998593330383,2.684999942779541 -1.031000018119812,2.5230000019073486 -1.8580000400543213,1.496000051498413 C-2.684999942779541,0.4699999988079071 -2.5239999294281006,-1.031999945640564 -1.496999979019165,-1.8589999675750732 C-0.4699999988079071,-2.686000108718872 1.031999945640564,-2.5239999294281006 1.8580000400543213,-1.496999979019165 C2.684999942779541,-0.47099998593330383 2.5230000019073486,1.031000018119812 1.496999979019165,1.8580000400543213z"></path></g><g opacity="1" transform="matrix(1,0,0,1,226.13299560546875,111.5719985961914)"><path fill="rgb(0,0,0)" fill-opacity="1" d=" M1.496999979019165,1.8580000400543213 C0.47099998593330383,2.684999942779541 -1.031000018119812,2.5230000019073486 -1.8580000400543213,1.496000051498413 C-2.684999942779541,0.4699999988079071 -2.5239999294281006,-1.0329999923706055 -1.496999979019165,-1.8589999675750732 C-0.47099998593330383,-2.686000108718872 1.031999945640564,-2.5239999294281006 1.8580000400543213,-1.496999979019165 C2.684999942779541,-0.47099998593330383 2.5230000019073486,1.031000018119812 1.496999979019165,1.8580000400543213z"></path></g><g opacity="1" transform="matrix(1,0,0,1,234.55999755859375,100.75199890136719)"><path fill="rgb(0,0,0)" fill-opacity="1" d=" M1.4980000257492065,1.8580000400543213 C0.47200000286102295,2.684999942779541 -1.0299999713897705,2.5230000019073486 -1.8569999933242798,1.496999979019165 C-2.684999942779541,0.4699999988079071 -2.5239999294281006,-1.031999945640564 -1.496999979019165,-1.8589999675750732 C-0.47099998593330383,-2.684999942779541 1.0329999923706055,-2.5239999294281006 1.8589999675750732,-1.496999979019165 C2.686000108718872,-0.47099998593330383 2.5239999294281006,1.031000018119812 1.4980000257492065,1.8580000400543213z"></path></g><g opacity="1" transform="matrix(1,0,0,1,225.13600158691406,124.55699920654297)"><path fill="rgb(0,0,0)" fill-opacity="1" d=" M1.496999979019165,1.8580000400543213 C0.47099998593330383,2.684999942779541 -1.031000018119812,2.5230000019073486 -1.8580000400543213,1.496000051498413 C-2.684999942779541,0.4699999988079071 -2.5239999294281006,-1.031999945640564 -1.496999979019165,-1.8589999675750732 C-0.47099998593330383,-2.684999942779541 1.031999945640564,-2.5239999294281006 1.8580000400543213,-1.496999979019165 C2.684999942779541,-0.47099998593330383 2.5230000019073486,1.031000018119812 1.496999979019165,1.8580000400543213z"></path></g><g opacity="1" transform="matrix(1,0,0,1,231.8179931640625,119.81999969482422)"><path fill="rgb(0,0,0)" fill-opacity="1" d=" M1.496999979019165,1.8580000400543213 C0.47099998593330383,2.684999942779541 -1.031000018119812,2.5230000019073486 -1.8580000400543213,1.496999979019165 C-2.684999942779541,0.4699999988079071 -2.5230000019073486,-1.031999945640564 -1.496000051498413,-1.8589999675750732 C-0.4699999988079071,-2.684999942779541 1.031999945640564,-2.5230000019073486 1.8589999675750732,-1.496999979019165 C2.684999942779541,-0.47099998593330383 2.5230000019073486,1.031000018119812 1.496999979019165,1.8580000400543213z"></path></g><g opacity="1" transform="matrix(1,0,0,1,248.19200134277344,134.13999938964844)"><path fill="rgb(0,0,0)" fill-opacity="1" d=" M1.496999979019165,1.8580000400543213 C0.47099998593330383,2.684999942779541 -1.031000018119812,2.5230000019073486 -1.8580000400543213,1.496999979019165 C-2.684999942779541,0.4699999988079071 -2.5239999294281006,-1.031999945640564 -1.496999979019165,-1.8589999675750732 C-0.47099998593330383,-2.684999942779541 1.031999945640564,-2.5230000019073486 1.8580000400543213,-1.496999979019165 C2.684999942779541,-0.47099998593330383 2.5230000019073486,1.031000018119812 1.496999979019165,1.8580000400543213z"></path></g><g opacity="1" transform="matrix(1,0,0,1,191.18299865722656,122.86299896240234)"><path fill="rgb(0,0,0)" fill-opacity="1" d=" M1.496999979019165,1.8580000400543213 C0.47099998593330383,2.684999942779541 -1.031000018119812,2.5230000019073486 -1.8580000400543213,1.496999979019165 C-2.684999942779541,0.4699999988079071 -2.5230000019073486,-1.031999945640564 -1.496000051498413,-1.8589999675750732 C-0.4699999988079071,-2.684999942779541 1.031999945640564,-2.5239999294281006 1.8580000400543213,-1.496999979019165 C2.684999942779541,-0.47099998593330383 2.5230000019073486,1.031000018119812 1.496999979019165,1.8580000400543213z"></path></g><g opacity="1" transform="matrix(1,0,0,1,145.031005859375,65.96099853515625)"><path fill="rgb(0,0,0)" fill-opacity="1" d=" M1.496999979019165,1.8580000400543213 C0.47099998593330383,2.684999942779541 -1.031999945640564,2.5230000019073486 -1.8580000400543213,1.496000051498413 C-2.684999942779541,0.4699999988079071 -2.5230000019073486,-1.0329999923706055 -1.496999979019165,-1.8589999675750732 C-0.4699999988079071,-2.686000108718872 1.031999945640564,-2.5239999294281006 1.8589999675750732,-1.496999979019165 C2.684999942779541,-0.47099998593330383 2.5230000019073486,1.031000018119812 1.496999979019165,1.8580000400543213z"></path></g><g opacity="1" transform="matrix(1,0,0,1,206.375,65.84100341796875)"><path fill="rgb(0,0,0)" fill-opacity="1" d=" M1.496999979019165,1.8580000400543213 C0.47099998593330383,2.684999942779541 -1.031000018119812,2.5230000019073486 -1.8580000400543213,1.496999979019165 C-2.684999942779541,0.4699999988079071 -2.5239999294281006,-1.031999945640564 -1.496000051498413,-1.8589999675750732 C-0.4699999988079071,-2.684999942779541 1.031999945640564,-2.5239999294281006 1.8580000400543213,-1.496999979019165 C2.684999942779541,-0.47099998593330383 2.5230000019073486,1.031000018119812 1.496999979019165,1.8580000400543213z"></path></g><g opacity="1" transform="matrix(1,0,0,1,204.11099243164062,54.91899871826172)"><path fill="rgb(0,0,0)" fill-opacity="1" d=" M1.496999979019165,1.8580000400543213 C0.47099998593330383,2.684999942779541 -1.031000018119812,2.5230000019073486 -1.8569999933242798,1.496000051498413 C-2.684999942779541,0.4699999988079071 -2.5230000019073486,-1.0329999923706055 -1.496000051498413,-1.8589999675750732 C-0.4699999988079071,-2.686000108718872 1.031999945640564,-2.5239999294281006 1.8589999675750732,-1.496999979019165 C2.684999942779541,-0.47099998593330383 2.5230000019073486,1.031000018119812 1.496999979019165,1.8580000400543213z"></path></g><g opacity="1" transform="matrix(1,0,0,1,178.35499572753906,31.054000854492188)"><path fill="rgb(0,0,0)" fill-opacity="1" d=" M1.4980000257492065,1.8580000400543213 C0.47099998593330383,2.684999942779541 -1.031000018119812,2.5230000019073486 -1.8569999933242798,1.496999979019165 C-2.684999942779541,0.4699999988079071 -2.5230000019073486,-1.031999945640564 -1.496000051498413,-1.8589999675750732 C-0.4699999988079071,-2.684999942779541 1.031999945640564,-2.5239999294281006 1.8589999675750732,-1.496999979019165 C2.684999942779541,-0.47099998593330383 2.5239999294281006,1.031000018119812 1.4980000257492065,1.8580000400543213z"></path></g><g opacity="1" transform="matrix(1,0,0,1,161.5449981689453,128.02099609375)"><path stroke-linecap="round" stroke-linejoin="round" fill-opacity="0" stroke="rgb(162,116,57)" stroke-opacity="1" stroke-width="4" d=" M-11.38599967956543,5.876999855041504 C-11.366000175476074,3.308000087738037 -10.473999977111816,0.7319999933242798 -8.67300033569336,-1.3730000257492065 C-4.618000030517578,-6.111000061035156 2.509999990463257,-6.664999961853027 7.249000072479248,-2.609999895095825 C10.04800033569336,-0.2150000035762787 11.38599967956543,3.250999927520752 11.178000450134277,6.664000034332275"></path></g><g opacity="1" transform="matrix(1,0,0,1,161.45199584960938,133.99200439453125)"><path fill="rgb(115,85,58)" fill-opacity="1" d=" M-8.184000015258789,8.265000343322754 C-12.74899959564209,3.74399995803833 -12.78600025177002,-3.619999885559082 -8.265999794006348,-8.1850004196167 C-3.746999979019165,-12.75 3.619999885559082,-12.78600025177002 8.184000015258789,-8.265999794006348 C12.75,-3.746000051498413 12.78600025177002,3.619999885559082 8.265999794006348,8.184000015258789 C3.746000051498413,12.74899959564209 -3.61899995803833,12.78499984741211 -8.184000015258789,8.265000343322754z"></path></g><g opacity="1" transform="matrix(1,0,0,1,161.45199584960938,135.08399963378906)"><path stroke-linecap="round" stroke-linejoin="round" fill-opacity="0" stroke="rgb(0,0,0)" stroke-opacity="1" stroke-width="4" d=" M5.90500020980835,-10.720999717712402 C6.552999973297119,-10.321999549865723 7.171999931335449,-9.85200023651123 7.747000217437744,-9.309000015258789 C12.28499984741211,-5.03000020980835 12.494999885559082,2.117000102996826 8.215999603271484,6.6539998054504395 C3.936000108718872,11.192999839782715 -3.2100000381469727,11.402999877929688 -7.748000144958496,7.124000072479248 C-12.28499984741211,2.8450000286102295 -12.494999885559082,-4.302000045776367 -8.215999603271484,-8.83899974822998 C-7.1620001792907715,-9.956999778747559 -5.934999942779541,-10.812000274658203 -4.614999771118164,-11.402000427246094"></path></g><g opacity="1" transform="matrix(1,0,0,1,151.40199279785156,84.2969970703125)"><path stroke-linecap="round" stroke-linejoin="round" fill-opacity="0" stroke="rgb(162,116,57)" stroke-opacity="1" stroke-width="4" d=" M-11.38599967956543,5.877999782562256 C-11.366000175476074,3.309000015258789 -10.473999977111816,0.7319999933242798 -8.673999786376953,-1.3730000257492065 C-4.618000030517578,-6.111000061035156 2.509999990463257,-6.664999961853027 7.249000072479248,-2.609999895095825 C10.04699993133545,-0.2150000035762787 11.38599967956543,3.252000093460083 11.178999900817871,6.664999961853027"></path></g><g opacity="1" transform="matrix(1,0,0,1,151.30799865722656,90.26699829101562)"><path fill="rgb(115,85,58)" fill-opacity="1" d=" M-8.182999610900879,8.265999794006348 C-12.748000144958496,3.746000051498413 -12.78499984741211,-3.619999885559082 -8.265000343322754,-8.1850004196167 C-3.744999885559082,-12.75 3.619999885559082,-12.78600025177002 8.185999870300293,-8.265999794006348 C12.75,-3.746000051498413 12.78600025177002,3.619999885559082 8.267000198364258,8.1850004196167 C3.746000051498413,12.75 -3.618000030517578,12.78600025177002 -8.182999610900879,8.265999794006348z"></path></g><g opacity="1" transform="matrix(1,0,0,1,153.0330047607422,91.36000061035156)"><path stroke-linecap="round" stroke-linejoin="round" fill-opacity="0" stroke="rgb(0,0,0)" stroke-opacity="1" stroke-width="5" d=" M4.181000232696533,-10.720999717712402 C4.828999996185303,-10.322999954223633 5.447000026702881,-9.85200023651123 6.021999835968018,-9.309000015258789 C7.110000133514404,-8.284000396728516 14.220000267028809,-1.5420000553131104 6.491000175476074,6.6539998054504395 C2.2119998931884766,11.192000389099121 -4.934999942779541,11.402999877929688 -9.472999572753906,7.124000072479248 C-14.010000228881836,2.8450000286102295 -14.220000267028809,-4.302000045776367 -9.940999984741211,-8.84000015258789 C-8.88700008392334,-9.956999778747559 -7.659999847412109,-10.812000274658203 -6.340000152587891,-11.402000427246094"></path></g><g opacity="1" transform="matrix(1,0,0,1,164.4709930419922,47.472999572753906)"><path stroke-linecap="round" stroke-linejoin="round" fill-opacity="0" stroke="rgb(162,116,57)" stroke-opacity="1" stroke-width="4" d=" M-11.38599967956543,5.876999855041504 C-11.366000175476074,3.308000087738037 -10.473999977111816,0.7319999933242798 -8.67300033569336,-1.3730000257492065 C-4.618000030517578,-6.111000061035156 2.509999990463257,-6.664999961853027 7.249000072479248,-2.609999895095825 C10.04800033569336,-0.2150000035762787 11.38599967956543,3.252000093460083 11.178000450134277,6.664999961853027"></path></g><g opacity="1" transform="matrix(1,0,0,1,164.3769989013672,53.44300079345703)"><path fill="rgb(115,85,58)" fill-opacity="1" d=" M-8.184000015258789,8.265000343322754 C-12.748000144958496,3.744999885559082 -12.78600025177002,-3.61899995803833 -8.265000343322754,-8.184000015258789 C-3.746000051498413,-12.74899959564209 3.619999885559082,-12.78499984741211 8.184000015258789,-8.265000343322754 C12.75,-3.744999885559082 12.78600025177002,3.61899995803833 8.265999794006348,8.184000015258789 C3.746000051498413,12.74899959564209 -3.61899995803833,12.78499984741211 -8.184000015258789,8.265000343322754z"></path></g><g opacity="1" transform="matrix(1,0,0,1,164.3769989013672,54.5359992980957)"><path stroke-linecap="round" stroke-linejoin="round" fill-opacity="0" stroke="rgb(0,0,0)" stroke-opacity="1" stroke-width="5" d=" M5.906000137329102,-10.720999717712402 C6.553999900817871,-10.322999954223633 7.171999931335449,-9.85200023651123 7.747000217437744,-9.309000015258789 C12.28499984741211,-5.03000020980835 12.494000434875488,2.117000102996826 8.215999603271484,6.6539998054504395 C3.936000108718872,11.192000389099121 -3.2090001106262207,11.402999877929688 -7.747000217437744,7.124000072479248 C-12.284000396728516,2.8450000286102295 -12.494000434875488,-4.302999973297119 -8.21500015258789,-8.840999603271484 C-7.160999774932861,-9.958000183105469 -5.934999942779541,-10.812000274658203 -4.614999771118164,-11.402000427246094"></path></g><g opacity="1" transform="matrix(1,0,0,1,224.697998046875,77.68000030517578)"><path stroke-linecap="round" stroke-linejoin="round" fill-opacity="0" stroke="rgb(162,116,57)" stroke-opacity="1" stroke-width="4" d=" M4.5960001945495605,11.449999809265137 C2.0339999198913574,11.251999855041504 -0.4740000069141388,10.182999610900879 -2.447999954223633,8.239999771118164 C-6.89300012588501,3.865000009536743 -6.948999881744385,-3.2850000858306885 -2.5739998817443848,-7.730000019073486 C0.008999999612569809,-10.354999542236328 3.559000015258789,-11.449999809265137 6.948999881744385,-11.005999565124512"></path></g><g opacity="1" transform="matrix(1,0,0,1,230.1719970703125,77.87200164794922)"><path fill="rgb(115,85,58)" fill-opacity="1" d=" M7.676000118255615,8.73900032043457 C2.8489999771118164,12.977999687194824 -4.500999927520752,12.503000259399414 -8.739999771118164,7.676000118255615 C-12.979000091552734,2.8489999771118164 -12.503999710083008,-4.499000072479248 -7.677000045776367,-8.73900032043457 C-2.8499999046325684,-12.977999687194824 4.499000072479248,-12.501999855041504 8.73799991607666,-7.676000118255615 C12.979000091552734,-2.8489999771118164 12.501999855041504,4.5 7.676000118255615,8.73900032043457z"></path></g><g opacity="1" transform="matrix(1,0,0,1,231.13400268554688,77.87200164794922)"><path stroke-linecap="round" stroke-linejoin="round" fill-opacity="0" stroke="rgb(0,0,0)" stroke-opacity="1" stroke-width="5" d=" M-10.154999732971191,-6.560999870300293 C-9.713000297546387,-7.179999828338623 -9.201000213623047,-7.763999938964844 -8.619999885559082,-8.300000190734863 C-4.035999774932861,-12.529000282287598 3.109999895095825,-12.241000175476074 7.339000225067139,-7.6570000648498535 C11.567999839782715,-3.072999954223633 11.279000282287598,4.071000099182129 6.695000171661377,8.300000190734863 C2.1110000610351562,12.529000282287598 -5.033999919891357,12.241000175476074 -9.26200008392334,7.6570000648498535 C-10.303999900817871,6.5279998779296875 -11.071999549865723,5.24399995803833 -11.567999839782715,3.885999917984009"></path></g><g opacity="1" transform="matrix(1,0,0,1,257.4779968261719,101.37899780273438)"><path stroke-linecap="round" stroke-linejoin="round" fill-opacity="0" stroke="rgb(162,116,57)" stroke-opacity="1" stroke-width="4" d=" M-11.402999877929688,5.630000114440918 C-11.347999572753906,3.062000036239624 -10.42300033569336,0.49799999594688416 -8.592000007629395,-1.5820000171661377 C-4.473999977111816,-6.264999866485596 2.6610000133514404,-6.7230000495910645 7.34499979019165,-2.6040000915527344 C10.111000061035156,-0.1720000058412552 11.402999877929688,3.312999963760376 11.14900016784668,6.7230000495910645"></path></g><g opacity="1" transform="matrix(1,0,0,1,257.7829895019531,107.7760009765625)"><path fill="rgb(115,85,58)" fill-opacity="1" d=" M7.676000118255615,8.73900032043457 C2.8499999046325684,12.979000091552734 -4.5,12.503000259399414 -8.73900032043457,7.676000118255615 C-12.979000091552734,2.8489999771118164 -12.503000259399414,-4.5 -7.677000045776367,-8.739999771118164 C-2.8489999771118164,-12.979000091552734 4.499000072479248,-12.503000259399414 8.73900032043457,-7.677000045776367 C12.979000091552734,-2.8499999046325684 12.503000259399414,4.5 7.676000118255615,8.73900032043457z"></path></g><g opacity="1" transform="matrix(1,0,0,1,256.5719909667969,107.7760009765625)"><path stroke-linecap="round" stroke-linejoin="round" fill-opacity="0" stroke="rgb(0,0,0)" stroke-opacity="1" stroke-width="5" d=" M11.628000259399414,4.366000175476074 C11.333000183105469,5.067999839782715 10.961999893188477,5.75 10.513999938964844,6.4019999504089355 C6.979000091552734,11.538999557495117 -0.05299999937415123,12.83899974822998 -5.190999984741211,9.303000450134277 C-10.329000473022461,5.767000198364258 -11.628000259399414,-1.2640000581741333 -8.093000411987305,-6.4019999504089355 C-4.557000160217285,-11.539999961853027 2.4749999046325684,-12.83899974822998 7.611999988555908,-9.303000450134277 C8.878000259399414,-8.432000160217285 9.90999984741211,-7.349999904632568 10.694999694824219,-6.135000228881836"></path></g><g opacity="1" transform="matrix(1,0,0,1,218.27699279785156,144.4029998779297)"><path stroke-linecap="round" stroke-linejoin="round" fill-opacity="0" stroke="rgb(162,116,57)" stroke-opacity="1" stroke-width="4" d=" M-11.277000427246094,1.1039999723434448 C-10.51200008392334,-1.3480000495910645 -8.913000106811523,-3.555000066757202 -6.578999996185303,-5.046000003814697 C-1.3229999542236328,-8.404999732971191 5.658999919891357,-6.867000102996826 9.017999649047852,-1.6109999418258667 C11.00100040435791,1.4930000305175781 11.277999877929688,5.197999954223633 10.08899974822998,8.404000282287598"></path></g><g opacity="1" transform="matrix(1,0,0,1,217.77999877929688,148.8719940185547)"><path fill="rgb(115,85,58)" fill-opacity="1" d=" M-10.229999542236328,5.534999847412109 C-13.286999702453613,-0.11400000005960464 -11.185999870300293,-7.171999931335449 -5.5370001792907715,-10.229999542236328 C0.11400000005960464,-13.286999702453613 7.172999858856201,-11.185999870300293 10.230999946594238,-5.535999774932861 C13.288000106811523,0.11400000005960464 11.185999870300293,7.172999858856201 5.5370001792907715,10.229999542236328 C-0.11400000005960464,13.286999702453613 -7.171999931335449,11.1850004196167 -10.229999542236328,5.534999847412109z"></path></g><g opacity="1" transform="matrix(1,0,0,1,217.77999877929688,147.91200256347656)"><path stroke-linecap="round" stroke-linejoin="round" fill-opacity="0" stroke="rgb(0,0,0)" stroke-opacity="1" stroke-width="5" d=" M-6.577000141143799,10.142999649047852 C-7.196000099182129,9.699000358581543 -7.7779998779296875,9.185999870300293 -8.312999725341797,8.604000091552734 C-12.534000396728516,4.01200008392334 -12.234000205993652,-3.13100004196167 -7.642000198364258,-7.3520002365112305 C-3.0510001182556152,-11.574000358581543 4.0929999351501465,-11.27400016784668 8.314000129699707,-6.682000160217285 C12.534000396728516,-2.0899999141693115 12.234999656677246,5.053999900817871 7.64300012588501,9.274999618530273 C6.51200008392334,10.3149995803833 5.22599983215332,11.079999923706055 3.867000102996826,11.574999809265137"></path></g><g opacity="1" transform="matrix(1,0,0,1,0,0)"><path fill="rgb(190,136,68)" fill-opacity="1" d=" M-31,-105"></path><path stroke-linecap="butt" stroke-linejoin="miter" fill-opacity="0" stroke-miterlimit="4" stroke="rgb(92,50,6)" stroke-opacity="1" stroke-width="4" d=" M-31,-105"></path></g></g><g transform="matrix(-0.9192692637443542,-0.3936292827129364,0.3936292827129364,-0.9192692637443542,171.15440368652344,442.75653076171875)" opacity="1" style="display: block;"><g opacity="1" transform="matrix(1,0,0,1,94.92900085449219,171.11099243164062)"><path fill="rgb(162,116,57)" fill-opacity="1" d=" M82.42900085449219,0 C82.42900085449219,44.779998779296875 45.52399826049805,81.08200073242188 0,81.08200073242188 C-45.52399826049805,81.08200073242188 -82.42900085449219,44.779998779296875 -82.42900085449219,0 C-82.42900085449219,-44.78099822998047 -45.52399826049805,-81.08300018310547 0,-81.08300018310547 C45.52399826049805,-81.08300018310547 82.42900085449219,-44.78099822998047 82.42900085449219,0z"></path></g><g opacity="1" transform="matrix(1,0,0,1,88.10299682617188,163.35299682617188)"><path fill="rgb(204,162,93)" fill-opacity="1" d=" M75.60399627685547,7.757999897003174 C75.60399627685547,42.125999450683594 31.61400032043457,73.32599639892578 6.826000213623047,73.32599639892578 C-38.698001861572266,73.32599639892578 -75.60399627685547,52.53799819946289 -75.60399627685547,7.757999897003174 C-75.60399627685547,-37.02299880981445 -38.698001861572266,-73.32499694824219 6.826000213623047,-73.32499694824219 C52.35100173950195,-73.32499694824219 75.60399627685547,-37.02299880981445 75.60399627685547,7.757999897003174z"></path></g><g opacity="1" transform="matrix(1,0,0,1,94.92900085449219,171.11099243164062)"><path stroke-linecap="round" stroke-linejoin="round" fill-opacity="0" stroke="rgb(0,0,0)" stroke-opacity="1" stroke-width="5" d=" M82.42900085449219,0 C82.42900085449219,44.779998779296875 45.52399826049805,81.08200073242188 0,81.08200073242188 C-45.52399826049805,81.08200073242188 -82.42900085449219,44.779998779296875 -82.42900085449219,0 C-82.42900085449219,-44.78099822998047 -45.52399826049805,-81.08300018310547 0,-81.08300018310547 C45.52399826049805,-81.08300018310547 82.42900085449219,-51.694000244140625 82.42900085449219,0z"></path></g><g opacity="1" transform="matrix(1,0,0,1,90.05999755859375,174.16400146484375)"><path stroke-linecap="round" stroke-linejoin="round" fill-opacity="0" stroke="rgb(162,116,57)" stroke-opacity="1" stroke-width="4" d=" M-4.8379998207092285,10.256999969482422 C-6.826000213623047,8.630000114440918 -8.27299976348877,6.320000171661377 -8.781999588012695,3.5969998836517334 C-9.928999900817871,-2.5329999923706055 -5.888999938964844,-8.432000160217285 0.2409999966621399,-9.579999923706055 C3.861999988555908,-10.256999969482422 7.401000022888184,-9.125 9.928999900817871,-6.822000026702881"></path></g><g opacity="1" transform="matrix(1,0,0,1,93.46399688720703,175.84500122070312)"><path fill="rgb(115,85,58)" fill-opacity="1" d=" M12.001999855041504,0 C12.001999855041504,6.627999782562256 6.627999782562256,12.00100040435791 0.0010000000474974513,12.00100040435791 C-6.627999782562256,12.00100040435791 -12.001999855041504,6.627999782562256 -12.001999855041504,0 C-12.001999855041504,-6.627999782562256 -6.627999782562256,-12.001999855041504 0.0010000000474974513,-12.001999855041504 C6.627999782562256,-12.001999855041504 12.001999855041504,-6.627999782562256 12.001999855041504,0z"></path><path stroke-linecap="round" stroke-linejoin="round" fill-opacity="0" stroke="rgb(0,0,0)" stroke-opacity="1" stroke-width="5" d=" M12.001999855041504,0 C12.001999855041504,6.627999782562256 6.627999782562256,12.00100040435791 0.0010000000474974513,12.00100040435791 C-6.627999782562256,12.00100040435791 -12.001999855041504,6.627999782562256 -12.001999855041504,0 C-12.001999855041504,-6.627999782562256 -6.627999782562256,-12.001999855041504 0.0010000000474974513,-12.001999855041504 C6.627999782562256,-12.001999855041504 12.001999855041504,-6.627999782562256 12.001999855041504,0z"></path></g><g opacity="1" transform="matrix(1,0,0,1,65.64199829101562,154.9810028076172)"><path fill="rgb(0,0,0)" fill-opacity="1" d=" M2.385999917984009,-0.0010000000474974513 C2.385999917984009,1.3170000314712524 1.3179999589920044,2.385999917984009 0,2.385999917984009 C-1.3179999589920044,2.385999917984009 -2.385999917984009,1.3170000314712524 -2.385999917984009,-0.0010000000474974513 C-2.385999917984009,-1.3179999589920044 -1.3179999589920044,-2.38700008392334 0,-2.38700008392334 C1.3179999589920044,-2.38700008392334 2.385999917984009,-1.3179999589920044 2.385999917984009,-0.0010000000474974513z"></path></g><g opacity="1" transform="matrix(1,0,0,1,65.26499938964844,168.48699951171875)"><path fill="rgb(0,0,0)" fill-opacity="1" d=" M2.385999917984009,0.0010000000474974513 C2.385999917984009,1.3179999589920044 1.3179999589920044,2.38700008392334 0,2.38700008392334 C-1.3179999589920044,2.38700008392334 -2.385999917984009,1.3179999589920044 -2.385999917984009,0.0010000000474974513 C-2.385999917984009,-1.3170000314712524 -1.3179999589920044,-2.385999917984009 0,-2.385999917984009 C1.3179999589920044,-2.385999917984009 2.385999917984009,-1.3170000314712524 2.385999917984009,0.0010000000474974513z"></path></g><g opacity="1" transform="matrix(1,0,0,1,57.2869987487793,183.48199462890625)"><path fill="rgb(0,0,0)" fill-opacity="1" d=" M2.385999917984009,0.0010000000474974513 C2.385999917984009,1.3179999589920044 1.3179999589920044,2.38700008392334 0,2.38700008392334 C-1.3179999589920044,2.38700008392334 -2.385999917984009,1.3179999589920044 -2.385999917984009,0.0010000000474974513 C-2.385999917984009,-1.3170000314712524 -1.3179999589920044,-2.385999917984009 0,-2.385999917984009 C1.3179999589920044,-2.385999917984009 2.385999917984009,-1.3170000314712524 2.385999917984009,0.0010000000474974513z"></path></g><g opacity="1" transform="matrix(1,0,0,1,72.48999786376953,183.85800170898438)"><path fill="rgb(0,0,0)" fill-opacity="1" d=" M2.38700008392334,0.0010000000474974513 C2.38700008392334,1.3179999589920044 1.3179999589920044,2.38700008392334 -0.0010000000474974513,2.38700008392334 C-1.319000005722046,2.38700008392334 -2.38700008392334,1.3179999589920044 -2.38700008392334,0.0010000000474974513 C-2.38700008392334,-1.3170000314712524 -1.319000005722046,-2.385999917984009 -0.0010000000474974513,-2.385999917984009 C1.3179999589920044,-2.385999917984009 2.38700008392334,-1.3170000314712524 2.38700008392334,0.0010000000474974513z"></path></g><g opacity="1" transform="matrix(1,0,0,1,76.76200103759766,218.53799438476562)"><path fill="rgb(0,0,0)" fill-opacity="1" d=" M2.38700008392334,-0.0010000000474974513 C2.38700008392334,1.3170000314712524 1.319000005722046,2.38700008392334 0.0010000000474974513,2.38700008392334 C-1.3170000314712524,2.38700008392334 -2.38700008392334,1.3170000314712524 -2.38700008392334,-0.0010000000474974513 C-2.38700008392334,-1.3179999589920044 -1.3170000314712524,-2.38700008392334 0.0010000000474974513,-2.38700008392334 C1.319000005722046,-2.38700008392334 2.38700008392334,-1.3179999589920044 2.38700008392334,-0.0010000000474974513z"></path></g><g opacity="1" transform="matrix(1,0,0,1,68.02999877929688,232.10800170898438)"><path fill="rgb(0,0,0)" fill-opacity="1" d=" M2.385999917984009,0 C2.385999917984009,1.3170000314712524 1.3179999589920044,2.38700008392334 0,2.38700008392334 C-1.3179999589920044,2.38700008392334 -2.385999917984009,1.3170000314712524 -2.385999917984009,0 C-2.385999917984009,-1.3179999589920044 -1.3179999589920044,-2.38700008392334 0,-2.38700008392334 C1.3179999589920044,-2.38700008392334 2.385999917984009,-1.3179999589920044 2.385999917984009,0z"></path></g><g opacity="1" transform="matrix(1,0,0,1,92.54299926757812,200.19400024414062)"><path fill="rgb(0,0,0)" fill-opacity="1" d=" M2.385999917984009,-0.0010000000474974513 C2.385999917984009,1.3170000314712524 1.3179999589920044,2.385999917984009 0,2.385999917984009 C-1.3179999589920044,2.385999917984009 -2.385999917984009,1.3170000314712524 -2.385999917984009,-0.0010000000474974513 C-2.385999917984009,-1.3179999589920044 -1.3179999589920044,-2.38700008392334 0,-2.38700008392334 C1.3179999589920044,-2.38700008392334 2.385999917984009,-1.3179999589920044 2.385999917984009,-0.0010000000474974513z"></path></g><g opacity="1" transform="matrix(1,0,0,1,120.56199645996094,206.6009979248047)"><path fill="rgb(0,0,0)" fill-opacity="1" d=" M2.38700008392334,0 C2.38700008392334,1.3179999589920044 1.319000005722046,2.38700008392334 0.0010000000474974513,2.38700008392334 C-1.3179999589920044,2.38700008392334 -2.38700008392334,1.3179999589920044 -2.38700008392334,0 C-2.38700008392334,-1.3179999589920044 -1.3179999589920044,-2.38700008392334 0.0010000000474974513,-2.38700008392334 C1.319000005722046,-2.38700008392334 2.38700008392334,-1.3179999589920044 2.38700008392334,0z"></path></g><g opacity="1" transform="matrix(1,0,0,1,120.56199645996094,227.20799255371094)"><path fill="rgb(0,0,0)" fill-opacity="1" d=" M2.38700008392334,0 C2.38700008392334,1.3179999589920044 1.319000005722046,2.38700008392334 0.0010000000474974513,2.38700008392334 C-1.3179999589920044,2.38700008392334 -2.38700008392334,1.3179999589920044 -2.38700008392334,0 C-2.38700008392334,-1.3179999589920044 -1.3179999589920044,-2.38700008392334 0.0010000000474974513,-2.38700008392334 C1.319000005722046,-2.38700008392334 2.38700008392334,-1.3179999589920044 2.38700008392334,0z"></path></g><g opacity="1" transform="matrix(1,0,0,1,144.62399291992188,222.43499755859375)"><path fill="rgb(0,0,0)" fill-opacity="1" d=" M2.385999917984009,0.0010000000474974513 C2.385999917984009,1.3179999589920044 1.3179999589920044,2.38700008392334 0,2.38700008392334 C-1.3179999589920044,2.38700008392334 -2.385999917984009,1.3179999589920044 -2.385999917984009,0.0010000000474974513 C-2.385999917984009,-1.3170000314712524 -1.3179999589920044,-2.385999917984009 0,-2.385999917984009 C1.3179999589920044,-2.385999917984009 2.385999917984009,-1.3170000314712524 2.385999917984009,0.0010000000474974513z"></path></g><g opacity="1" transform="matrix(1,0,0,1,117.61000061035156,191.0229949951172)"><path fill="rgb(0,0,0)" fill-opacity="1" d=" M2.38700008392334,0 C2.38700008392334,1.3170000314712524 1.3170000314712524,2.385999917984009 -0.0010000000474974513,2.385999917984009 C-1.319000005722046,2.385999917984009 -2.38700008392334,1.3170000314712524 -2.38700008392334,0 C-2.38700008392334,-1.3179999589920044 -1.319000005722046,-2.38700008392334 -0.0010000000474974513,-2.38700008392334 C1.3170000314712524,-2.38700008392334 2.38700008392334,-1.3179999589920044 2.38700008392334,0z"></path></g><g opacity="1" transform="matrix(1,0,0,1,111.51599884033203,169.0970001220703)"><path fill="rgb(0,0,0)" fill-opacity="1" d=" M2.385999917984009,0.0010000000474974513 C2.385999917984009,1.3179999589920044 1.3179999589920044,2.38700008392334 0,2.38700008392334 C-1.3179999589920044,2.38700008392334 -2.385999917984009,1.3179999589920044 -2.385999917984009,0.0010000000474974513 C-2.385999917984009,-1.3170000314712524 -1.3179999589920044,-2.385999917984009 0,-2.385999917984009 C1.3179999589920044,-2.385999917984009 2.385999917984009,-1.3170000314712524 2.385999917984009,0.0010000000474974513z"></path></g><g opacity="1" transform="matrix(1,0,0,1,123.20099639892578,163.50599670410156)"><path fill="rgb(0,0,0)" fill-opacity="1" d=" M2.38700008392334,-0.0010000000474974513 C2.38700008392334,1.3170000314712524 1.3179999589920044,2.385999917984009 -0.0010000000474974513,2.385999917984009 C-1.319000005722046,2.385999917984009 -2.38700008392334,1.3170000314712524 -2.38700008392334,-0.0010000000474974513 C-2.38700008392334,-1.3179999589920044 -1.319000005722046,-2.38700008392334 -0.0010000000474974513,-2.38700008392334 C1.3179999589920044,-2.38700008392334 2.38700008392334,-1.3179999589920044 2.38700008392334,-0.0010000000474974513z"></path></g><g opacity="1" transform="matrix(1,0,0,1,120.05899810791016,150.15499877929688)"><path fill="rgb(0,0,0)" fill-opacity="1" d=" M2.38700008392334,-0.0010000000474974513 C2.38700008392334,1.3170000314712524 1.3179999589920044,2.38700008392334 -0.0010000000474974513,2.38700008392334 C-1.319000005722046,2.38700008392334 -2.38700008392334,1.3170000314712524 -2.38700008392334,-0.0010000000474974513 C-2.38700008392334,-1.3179999589920044 -1.319000005722046,-2.385999917984009 -0.0010000000474974513,-2.385999917984009 C1.3179999589920044,-2.385999917984009 2.38700008392334,-1.3179999589920044 2.38700008392334,-0.0010000000474974513z"></path></g><g opacity="1" transform="matrix(1,0,0,1,132.68800354003906,172.427001953125)"><path fill="rgb(0,0,0)" fill-opacity="1" d=" M2.385999917984009,-0.0010000000474974513 C2.385999917984009,1.3170000314712524 1.3179999589920044,2.385999917984009 0,2.385999917984009 C-1.3179999589920044,2.385999917984009 -2.385999917984009,1.3170000314712524 -2.385999917984009,-0.0010000000474974513 C-2.385999917984009,-1.3179999589920044 -1.3179999589920044,-2.38700008392334 0,-2.38700008392334 C1.3179999589920044,-2.38700008392334 2.385999917984009,-1.3179999589920044 2.385999917984009,-0.0010000000474974513z"></path></g><g opacity="1" transform="matrix(1,0,0,1,133.19000244140625,164.2519989013672)"><path fill="rgb(0,0,0)" fill-opacity="1" d=" M2.385999917984009,-0.0010000000474974513 C2.385999917984009,1.3170000314712524 1.3179999589920044,2.38700008392334 0,2.38700008392334 C-1.3179999589920044,2.38700008392334 -2.385999917984009,1.3170000314712524 -2.385999917984009,-0.0010000000474974513 C-2.385999917984009,-1.3179999589920044 -1.3179999589920044,-2.385999917984009 0,-2.385999917984009 C1.3179999589920044,-2.385999917984009 2.385999917984009,-1.3179999589920044 2.385999917984009,-0.0010000000474974513z"></path></g><g opacity="1" transform="matrix(1,0,0,1,154.61399841308594,160.48300170898438)"><path fill="rgb(0,0,0)" fill-opacity="1" d=" M2.385999917984009,-0.0010000000474974513 C2.385999917984009,1.3170000314712524 1.3179999589920044,2.38700008392334 -0.0010000000474974513,2.38700008392334 C-1.3179999589920044,2.38700008392334 -2.385999917984009,1.3170000314712524 -2.385999917984009,-0.0010000000474974513 C-2.385999917984009,-1.3179999589920044 -1.3179999589920044,-2.385999917984009 -0.0010000000474974513,-2.385999917984009 C1.3179999589920044,-2.385999917984009 2.385999917984009,-1.3179999589920044 2.385999917984009,-0.0010000000474974513z"></path></g><g opacity="1" transform="matrix(1,0,0,1,110.07099914550781,197.8070068359375)"><path fill="rgb(0,0,0)" fill-opacity="1" d=" M2.38700008392334,0.0010000000474974513 C2.38700008392334,1.3179999589920044 1.319000005722046,2.38700008392334 0.0010000000474974513,2.38700008392334 C-1.3170000314712524,2.38700008392334 -2.38700008392334,1.3179999589920044 -2.38700008392334,0.0010000000474974513 C-2.38700008392334,-1.3170000314712524 -1.3170000314712524,-2.385999917984009 0.0010000000474974513,-2.385999917984009 C1.319000005722046,-2.385999917984009 2.38700008392334,-1.3170000314712524 2.38700008392334,0.0010000000474974513z"></path></g><g opacity="1" transform="matrix(1,0,0,1,36.805999755859375,198.0570068359375)"><path fill="rgb(0,0,0)" fill-opacity="1" d=" M2.385999917984009,0.0010000000474974513 C2.385999917984009,1.3179999589920044 1.3179999589920044,2.38700008392334 0,2.38700008392334 C-1.3179999589920044,2.38700008392334 -2.385999917984009,1.3179999589920044 -2.385999917984009,0.0010000000474974513 C-2.385999917984009,-1.3170000314712524 -1.3179999589920044,-2.385999917984009 0,-2.385999917984009 C1.3179999589920044,-2.385999917984009 2.385999917984009,-1.3170000314712524 2.385999917984009,0.0010000000474974513z"></path></g><g opacity="1" transform="matrix(1,0,0,1,75.19200134277344,150.20799255371094)"><path fill="rgb(0,0,0)" fill-opacity="1" d=" M2.385999917984009,-0.0010000000474974513 C2.385999917984009,1.3170000314712524 1.3179999589920044,2.385999917984009 0,2.385999917984009 C-1.3179999589920044,2.385999917984009 -2.385999917984009,1.3170000314712524 -2.385999917984009,-0.0010000000474974513 C-2.385999917984009,-1.3179999589920044 -1.3179999589920044,-2.38700008392334 0,-2.38700008392334 C1.3179999589920044,-2.38700008392334 2.385999917984009,-1.3179999589920044 2.385999917984009,-0.0010000000474974513z"></path></g><g opacity="1" transform="matrix(1,0,0,1,89.8219985961914,121.13999938964844)"><path fill="rgb(0,0,0)" fill-opacity="1" d=" M2.385999917984009,0 C2.385999917984009,1.3179999589920044 1.3179999589920044,2.385999917984009 0,2.385999917984009 C-1.3179999589920044,2.385999917984009 -2.385999917984009,1.3179999589920044 -2.385999917984009,0 C-2.385999917984009,-1.3179999589920044 -1.3179999589920044,-2.385999917984009 0,-2.385999917984009 C1.3179999589920044,-2.385999917984009 2.385999917984009,-1.3179999589920044 2.385999917984009,0z"></path></g><g opacity="1" transform="matrix(1,0,0,1,99.48799896240234,102.65399932861328)"><path fill="rgb(0,0,0)" fill-opacity="1" d=" M2.38700008392334,0 C2.38700008392334,1.3179999589920044 1.3179999589920044,2.385999917984009 -0.0010000000474974513,2.385999917984009 C-1.319000005722046,2.385999917984009 -2.38700008392334,1.3179999589920044 -2.38700008392334,0 C-2.38700008392334,-1.3179999589920044 -1.319000005722046,-2.385999917984009 -0.0010000000474974513,-2.385999917984009 C1.3179999589920044,-2.385999917984009 2.38700008392334,-1.3179999589920044 2.38700008392334,0z"></path></g><g opacity="1" transform="matrix(1,0,0,1,117.33000183105469,118.75399780273438)"><path fill="rgb(0,0,0)" fill-opacity="1" d=" M2.385999917984009,0.0010000000474974513 C2.385999917984009,1.319000005722046 1.3179999589920044,2.38700008392334 0,2.38700008392334 C-1.3179999589920044,2.38700008392334 -2.385999917984009,1.319000005722046 -2.385999917984009,0.0010000000474974513 C-2.385999917984009,-1.3170000314712524 -1.3179999589920044,-2.38700008392334 0,-2.38700008392334 C1.3179999589920044,-2.38700008392334 2.385999917984009,-1.3170000314712524 2.385999917984009,0.0010000000474974513z"></path></g><g opacity="1" transform="matrix(1,0,0,1,125.7490005493164,112.55899810791016)"><path fill="rgb(0,0,0)" fill-opacity="1" d=" M2.385999917984009,0 C2.385999917984009,1.3179999589920044 1.3179999589920044,2.385999917984009 0,2.385999917984009 C-1.3179999589920044,2.385999917984009 -2.385999917984009,1.3179999589920044 -2.385999917984009,0 C-2.385999917984009,-1.3179999589920044 -1.3179999589920044,-2.385999917984009 0,-2.385999917984009 C1.3179999589920044,-2.385999917984009 2.385999917984009,-1.3179999589920044 2.385999917984009,0z"></path></g><g opacity="1" transform="matrix(1,0,0,1,65.26499938964844,145.11900329589844)"><path fill="rgb(0,0,0)" fill-opacity="1" d=" M2.385999917984009,-0.0010000000474974513 C2.385999917984009,1.3170000314712524 1.3179999589920044,2.385999917984009 0,2.385999917984009 C-1.3179999589920044,2.385999917984009 -2.385999917984009,1.3170000314712524 -2.385999917984009,-0.0010000000474974513 C-2.385999917984009,-1.3179999589920044 -1.3179999589920044,-2.38700008392334 0,-2.38700008392334 C1.3179999589920044,-2.38700008392334 2.385999917984009,-1.3179999589920044 2.385999917984009,-0.0010000000474974513z"></path></g><g opacity="1" transform="matrix(1,0,0,1,30.52400016784668,150.20799255371094)"><path fill="rgb(0,0,0)" fill-opacity="1" d=" M2.385999917984009,-0.0010000000474974513 C2.385999917984009,1.3170000314712524 1.3179999589920044,2.385999917984009 0,2.385999917984009 C-1.3179999589920044,2.385999917984009 -2.385999917984009,1.3170000314712524 -2.385999917984009,-0.0010000000474974513 C-2.385999917984009,-1.3179999589920044 -1.3179999589920044,-2.38700008392334 0,-2.38700008392334 C1.3179999589920044,-2.38700008392334 2.385999917984009,-1.3179999589920044 2.385999917984009,-0.0010000000474974513z"></path></g><g opacity="1" transform="matrix(1,0,0,1,42.71099853515625,132.11399841308594)"><path fill="rgb(0,0,0)" fill-opacity="1" d=" M2.38700008392334,0 C2.38700008392334,1.3179999589920044 1.319000005722046,2.385999917984009 0.0010000000474974513,2.385999917984009 C-1.3179999589920044,2.385999917984009 -2.38700008392334,1.3179999589920044 -2.38700008392334,0 C-2.38700008392334,-1.3179999589920044 -1.3179999589920044,-2.385999917984009 0.0010000000474974513,-2.385999917984009 C1.319000005722046,-2.385999917984009 2.38700008392334,-1.3179999589920044 2.38700008392334,0z"></path></g><g opacity="1" transform="matrix(1,0,0,1,97.7699966430664,226.4219970703125)"><path stroke-linecap="round" stroke-linejoin="round" fill-opacity="0" stroke="rgb(162,116,57)" stroke-opacity="1" stroke-width="4" d=" M-4.8379998207092285,10.256999969482422 C-6.826000213623047,8.630000114440918 -8.27299976348877,6.318999767303467 -8.781999588012695,3.5969998836517334 C-9.928999900817871,-2.5329999923706055 -5.888999938964844,-8.432000160217285 0.2409999966621399,-9.579999923706055 C3.861999988555908,-10.256999969482422 7.401000022888184,-9.125 9.928999900817871,-6.822000026702881"></path></g><g opacity="1" transform="matrix(1,0,0,1,100.08799743652344,227.9429931640625)"><path fill="rgb(115,85,58)" fill-opacity="1" d=" M1.3040000200271606,11.557999610900879 C-5.078999996185303,12.277999877929688 -10.83899974822998,7.686999797821045 -11.559000015258789,1.3029999732971191 C-12.279000282287598,-5.080999851226807 -7.686999797821045,-10.83899974822998 -1.3029999732971191,-11.559000015258789 C5.079999923706055,-12.279000282287598 10.84000015258789,-7.686999797821045 11.559000015258789,-1.3040000200271606 C12.279000282287598,5.078999996185303 7.688000202178955,10.838000297546387 1.3040000200271606,11.557999610900879z"></path></g><g opacity="1" transform="matrix(1,0,0,1,100.40799713134766,227.9429931640625)"><path stroke-linecap="round" stroke-linejoin="round" fill-opacity="0" stroke="rgb(0,0,0)" stroke-opacity="1" stroke-width="5" d=" M-4.113999843597412,-10.638999938964844 C-3.3970000743865967,-10.894000053405762 -2.6429998874664307,-11.079000473022461 -1.8589999675750732,-11.187999725341797 C4.320000171661377,-12.036999702453613 10.017000198364258,-7.7179999351501465 10.866999626159668,-1.5390000343322754 C11.717000007629395,4.638999938964844 7.396999835968018,10.338000297546387 1.218999981880188,11.187000274658203 C-4.960000038146973,12.036999702453613 -10.656999588012695,7.7170000076293945 -11.508000373840332,1.5390000343322754 C-11.717000007629395,0.017000000923871994 -11.61299991607666,-1.4759999513626099 -11.244000434875488,-2.872999906539917"></path></g><g opacity="1" transform="matrix(1,0,0,1,57.35499954223633,206.89500427246094)"><path stroke-linecap="round" stroke-linejoin="round" fill-opacity="0" stroke="rgb(162,116,57)" stroke-opacity="1" stroke-width="4" d=" M-4.8379998207092285,10.256999969482422 C-6.826000213623047,8.630000114440918 -8.27299976348877,6.318999767303467 -8.781999588012695,3.5969998836517334 C-9.928999900817871,-2.5329999923706055 -5.888999938964844,-8.432000160217285 0.2409999966621399,-9.579999923706055 C3.861999988555908,-10.256999969482422 7.401000022888184,-9.125 9.928999900817871,-6.822000026702881"></path></g><g opacity="1" transform="matrix(1,0,0,1,59.67300033569336,208.41600036621094)"><path fill="rgb(115,85,58)" fill-opacity="1" d=" M1.3029999732971191,11.559000015258789 C-5.079999923706055,12.279000282287598 -10.83899974822998,7.686999797821045 -11.559000015258789,1.3029999732971191 C-12.279000282287598,-5.080999851226807 -7.686999797821045,-10.83899974822998 -1.3029999732971191,-11.559000015258789 C5.079999923706055,-12.279000282287598 10.84000015258789,-7.685999870300293 11.559000015258789,-1.3029999732971191 C12.279000282287598,5.079999923706055 7.686999797821045,10.83899974822998 1.3029999732971191,11.559000015258789z"></path></g><g opacity="1" transform="matrix(1,0,0,1,59.99300003051758,208.41600036621094)"><path stroke-linecap="round" stroke-linejoin="round" fill-opacity="0" stroke="rgb(0,0,0)" stroke-opacity="1" stroke-width="5" d=" M-4.113999843597412,-10.638999938964844 C-3.3970000743865967,-10.894000053405762 -2.6429998874664307,-11.079000473022461 -1.8589999675750732,-11.187999725341797 C4.320000171661377,-12.036999702453613 10.017000198364258,-7.7179999351501465 10.866999626159668,-1.5390000343322754 C11.717000007629395,4.638999938964844 7.396999835968018,10.338000297546387 1.218999981880188,11.187000274658203 C-4.960000038146973,12.036999702453613 -10.657999992370605,7.7170000076293945 -11.508000373840332,1.5390000343322754 C-11.717000007629395,0.017000000923871994 -11.61299991607666,-1.4759999513626099 -11.244000434875488,-2.872999906539917"></path></g><g opacity="1" transform="matrix(1,0,0,1,36.874000549316406,173.6179962158203)"><path stroke-linecap="round" stroke-linejoin="round" fill-opacity="0" stroke="rgb(162,116,57)" stroke-opacity="1" stroke-width="4" d=" M-4.8379998207092285,10.256999969482422 C-6.826000213623047,8.630999565124512 -8.27299976348877,6.320000171661377 -8.781999588012695,3.5980000495910645 C-9.928999900817871,-2.5329999923706055 -5.888999938964844,-8.432000160217285 0.24199999868869781,-9.579000473022461 C3.861999988555908,-10.256999969482422 7.401000022888184,-9.125 9.928999900817871,-6.822000026702881"></path></g><g opacity="1" transform="matrix(1,0,0,1,39.19200134277344,175.13900756835938)"><path fill="rgb(115,85,58)" fill-opacity="1" d=" M1.3029999732971191,11.557999610900879 C-5.080999851226807,12.279000282287598 -10.84000015258789,7.686999797821045 -11.559000015258789,1.3029999732971191 C-12.279000282287598,-5.080999851226807 -7.686999797821045,-10.83899974822998 -1.3029999732971191,-11.559000015258789 C5.080999851226807,-12.279000282287598 10.83899974822998,-7.686999797821045 11.559000015258789,-1.3029999732971191 C12.279000282287598,5.079999923706055 7.685999870300293,10.838000297546387 1.3029999732971191,11.557999610900879z"></path></g><g opacity="1" transform="matrix(1,0,0,1,39.512001037597656,175.13900756835938)"><path stroke-linecap="round" stroke-linejoin="round" fill-opacity="0" stroke="rgb(0,0,0)" stroke-opacity="1" stroke-width="5" d=" M-4.113999843597412,-10.638999938964844 C-3.3970000743865967,-10.894000053405762 -2.6429998874664307,-11.079000473022461 -1.8589999675750732,-11.187999725341797 C4.320000171661377,-12.036999702453613 10.017000198364258,-7.7170000076293945 10.866999626159668,-1.5379999876022339 C11.717000007629395,4.639999866485596 7.396999835968018,10.338000297546387 1.218999981880188,11.187000274658203 C-4.960000038146973,12.038000106811523 -10.657999992370605,7.7170000076293945 -11.508000373840332,1.5390000343322754 C-11.717000007629395,0.017000000923871994 -11.61299991607666,-1.475000023841858 -11.244000434875488,-2.872999906539917"></path></g><g opacity="1" transform="matrix(1,0,0,1,62.3390007019043,120.28500366210938)"><path stroke-linecap="round" stroke-linejoin="round" fill-opacity="0" stroke="rgb(162,116,57)" stroke-opacity="1" stroke-width="4" d=" M-4.8379998207092285,10.256999969482422 C-6.826000213623047,8.630999565124512 -8.27299976348877,6.320000171661377 -8.781999588012695,3.5969998836517334 C-9.928999900817871,-2.5339999198913574 -5.888999938964844,-8.432999610900879 0.24199999868869781,-9.579000473022461 C3.861999988555908,-10.256999969482422 7.401000022888184,-9.125 9.928999900817871,-6.822999954223633"></path></g><g opacity="1" transform="matrix(1,0,0,1,64.65599822998047,121.80599975585938)"><path fill="rgb(115,85,58)" fill-opacity="1" d=" M1.3040000200271606,11.559000015258789 C-5.079999923706055,12.279000282287598 -10.84000015258789,7.686999797821045 -11.559000015258789,1.3040000200271606 C-12.279000282287598,-5.079999923706055 -7.686999797821045,-10.83899974822998 -1.3029999732971191,-11.559000015258789 C5.080999851226807,-12.279000282287598 10.83899974822998,-7.688000202178955 11.559000015258789,-1.3040000200271606 C12.279000282287598,5.079999923706055 7.686999797821045,10.83899974822998 1.3040000200271606,11.559000015258789z"></path></g><g opacity="1" transform="matrix(1,0,0,1,64.97699737548828,121.80599975585938)"><path stroke-linecap="round" stroke-linejoin="round" fill-opacity="0" stroke="rgb(0,0,0)" stroke-opacity="1" stroke-width="5" d=" M-4.113999843597412,-10.638999938964844 C-3.3970000743865967,-10.894000053405762 -2.6429998874664307,-11.079999923706055 -1.8589999675750732,-11.187999725341797 C4.320000171661377,-12.036999702453613 10.017000198364258,-7.7179999351501465 10.866999626159668,-1.5390000343322754 C11.717000007629395,4.639999866485596 7.396999835968018,10.338000297546387 1.218999981880188,11.187000274658203 C-4.960000038146973,12.036999702453613 -10.657999992370605,7.7170000076293945 -11.508000373840332,1.5390000343322754 C-11.717000007629395,0.017000000923871994 -11.61299991607666,-1.475000023841858 -11.244000434875488,-2.874000072479248"></path></g><g opacity="1" transform="matrix(1,0,0,1,97.7760009765625,141.1020050048828)"><path stroke-linecap="round" stroke-linejoin="round" fill-opacity="0" stroke="rgb(162,116,57)" stroke-opacity="1" stroke-width="4" d=" M9.930000305175781,5.864999771118164 C8.168999671936035,7.735000133514404 5.76200008392334,9.017999649047852 3.010999917984009,9.336999893188477 C-3.184999942779541,10.053999900817871 -8.788999557495117,5.613999843597412 -9.506999969482422,-0.5809999704360962 C-9.930000305175781,-4.239999771118164 -8.553999900817871,-7.692999839782715 -6.080999851226807,-10.053999900817871"></path></g><g opacity="1" transform="matrix(1,0,0,1,99.48799896240234,139.2220001220703)"><path fill="rgb(115,85,58)" fill-opacity="1" d=" M11.621999740600586,-0.4970000088214874 C11.895999908447266,5.921000003814697 6.914999961853027,11.347000122070312 0.4970000088214874,11.619999885559082 C-5.921000003814697,11.895000457763672 -11.347999572753906,6.914000034332275 -11.621999740600586,0.4950000047683716 C-11.895999908447266,-5.922999858856201 -6.914999961853027,-11.347999572753906 -0.4970000088214874,-11.621999740600586 C5.921999931335449,-11.895999908447266 11.347999572753906,-6.914999961853027 11.621999740600586,-0.4970000088214874z"></path></g><g opacity="1" transform="matrix(1,0,0,1,99.48799896240234,139.06399536132812)"><path stroke-linecap="round" stroke-linejoin="round" fill-opacity="0" stroke="rgb(0,0,0)" stroke-opacity="1" stroke-width="5" d=" M-10.876999855041504,3.2019999027252197 C-11.081000328063965,2.4690001010894775 -11.21399974822998,1.7039999961853027 -11.267000198364258,0.9139999747276306 C-11.6850004196167,-5.309000015258789 -6.980000019073486,-10.692000389099121 -0.7570000290870667,-11.109999656677246 C5.466000080108643,-11.527999877929688 10.850000381469727,-6.822000026702881 11.267999649047852,-0.6000000238418579 C11.6850004196167,5.623000144958496 6.980000019073486,11.006999969482422 0.7570000290870667,11.425000190734863 C-0.7749999761581421,11.527000427246094 -2.256999969482422,11.319000244140625 -3.625999927520752,10.854999542236328"></path></g><g opacity="1" transform="matrix(1,0,0,1,137.1959991455078,134.91600036621094)"><path stroke-linecap="round" stroke-linejoin="round" fill-opacity="0" stroke="rgb(162,116,57)" stroke-opacity="1" stroke-width="4" d=" M-5.039999961853027,10.196999549865723 C-7.00600004196167,8.543999671936035 -8.42199993133545,6.214000225067139 -8.894000053405762,3.4839999675750732 C-9.956999778747559,-2.6610000133514404 -5.8379998207092285,-8.505000114440918 0.3070000112056732,-9.567999839782715 C3.937000036239624,-10.196999549865723 7.460000038146973,-9.017000198364258 9.956999778747559,-6.679999828338623"></path></g><g opacity="1" transform="matrix(1,0,0,1,140.0959930419922,136.4770050048828)"><path fill="rgb(115,85,58)" fill-opacity="1" d=" M11.621999740600586,-0.4970000088214874 C11.895000457763672,5.921000003814697 6.914999961853027,11.345999717712402 0.4970000088214874,11.619999885559082 C-5.921000003814697,11.895000457763672 -11.347000122070312,6.913000106811523 -11.621000289916992,0.4950000047683716 C-11.895000457763672,-5.922999858856201 -6.914000034332275,-11.347999572753906 -0.4959999918937683,-11.621999740600586 C5.921999931335449,-11.895999908447266 11.347999572753906,-6.914999961853027 11.621999740600586,-0.4970000088214874z"></path></g><g opacity="1" transform="matrix(1,0,0,1,140.0970001220703,137.08599853515625)"><path stroke-linecap="round" stroke-linejoin="round" fill-opacity="0" stroke="rgb(0,0,0)" stroke-opacity="1" stroke-width="5" d=" M9.9350004196167,-5.984000205993652 C10.295999526977539,-5.314000129699707 10.595000267028809,-4.5970001220703125 10.821000099182129,-3.8389999866485596 C12.604999542236328,2.138000011444092 9.206000328063965,8.428000450134277 3.2290000915527344,10.211999893188477 C-2.746999979019165,11.994999885559082 -9.036999702453613,8.597000122070312 -10.821000099182129,2.619999885559082 C-12.604999542236328,-3.3559999465942383 -9.206000328063965,-9.647000312805176 -3.2300000190734863,-11.430999755859375 C-1.7580000162124634,-11.869999885559082 -0.2669999897480011,-11.994999885559082 1.1710000038146973,-11.843999862670898"></path></g><g opacity="1" transform="matrix(1,0,0,1,146.09800720214844,190.5989990234375)"><path stroke-linecap="round" stroke-linejoin="round" fill-opacity="0" stroke="rgb(162,116,57)" stroke-opacity="1" stroke-width="4" d=" M-8.470999717712402,9.095000267028809 C-9.902000427246094,6.960999965667725 -10.616000175476074,4.329999923706055 -10.312999725341797,1.5759999752044678 C-9.631999969482422,-4.623000144958496 -4.053999900817871,-9.095999717712402 2.1449999809265137,-8.414999961853027 C5.806000232696533,-8.012999534606934 8.864999771118164,-5.9029998779296875 10.616000175476074,-2.9670000076293945"></path></g><g opacity="1" transform="matrix(1,0,0,1,147.00999450683594,193.40899658203125)"><path fill="rgb(115,85,58)" fill-opacity="1" d=" M-2.1050000190734863,11.4399995803833 C-8.42300033569336,10.277000427246094 -12.60200023651123,4.211999893188477 -11.437999725341797,-2.1050000190734863 C-10.274999618530273,-8.42300033569336 -4.210999965667725,-12.60200023651123 2.1070001125335693,-11.439000129699707 C8.425000190734863,-10.276000022888184 12.602999687194824,-4.211999893188477 11.4399995803833,2.1059999465942383 C10.277000427246094,8.42300033569336 4.2129998207092285,12.60200023651123 -2.1050000190734863,11.4399995803833z"></path></g><g opacity="1" transform="matrix(1,0,0,1,146.85699462890625,193.40899658203125)"><path stroke-linecap="round" stroke-linejoin="round" fill-opacity="0" stroke="rgb(0,0,0)" stroke-opacity="1" stroke-width="5" d=" M3.178999900817871,10.883000373840332 C2.446000099182129,11.086000442504883 1.6799999475479126,11.218000411987305 0.890999972820282,11.269000053405762 C-5.333000183105469,11.675999641418457 -10.708000183105469,6.960999965667725 -11.114999771118164,0.7369999885559082 C-11.522000312805176,-5.486000061035156 -6.807000160217285,-10.861000061035156 -0.5830000042915344,-11.267999649047852 C5.639999866485596,-11.675999641418457 11.015000343322754,-6.960000038146973 11.42199993133545,-0.7360000014305115 C11.52299976348877,0.7960000038146973 11.310999870300293,2.2780001163482666 10.843999862670898,3.6459999084472656"></path></g></g></g></svg>